# xmcd
#
# Track frame offsets:
#	150
#	14439
#	44762
#	67169
#	101296
#	117785
#	161583
#	191511
#	205752
#	248115
#	280862
#	304567
#
# Disc length: 4448 seconds
#
# Revision: 1
# Processed by: cddbd v1.5.2PL0 Copyright (c) Steve Scherf et al.
# Submitted via: audiograbber 1.83.01
#
DISCID=a3115e0c
DTITLE=Blodwyn Pig - Live in London 1991
DYEAR=1998
DGENRE=Blues
TTITLE0=It's Only Love
TTITLE1=Black Night Is Falling
TTITLE2=All Tore Down
TTITLE3=Billy The Kid
TTITLE4=It'Il Be Me
TTITLE5=Cat's Squirrel
TTITLE6=Before You Accuse Me
TTITLE7=All Said And Done
TTITLE8=I Wonder Who Baby
TTITLE9=Got My Mojo Working
TTITLE10=Slow Down
TTITLE11=Roadroller
EXTD=
EXTT0=
EXTT1=
EXTT2=
EXTT3=
EXTT4=
EXTT5=
EXTT6=
EXTT7=
EXTT8=
EXTT9=
EXTT10=
EXTT11=
PLAYORDER=
